<svg height="20" viewBox="0 0 20 20" width="20" xmlns="http://www.w3.org/2000/svg"><g fill="none" transform="translate(-12 -12)"><path d="m31.75145 12.8397623c-.2030546-.5043924-.7909143-.8397623-3.0012133-.8397623-.4152633 0-5.7466111.0792449-5.8885829.0971336-.0252731.0032021-.0503374.0078913-.0750636.0140434-.2786725.0650909-.5337339.2070016-.7364889.4097665l-9.6029838 9.6453133c-.5915213.5953402-.5968473 1.5578151-.0116506 2.1471367l7.2162602 7.2492404c.2803316.2816358.6610687.4390906 1.0575482.4373519.4059376.0008169.7953253-.1615474 1.0813488-.4508937l9.5999879-9.6433071c.2837771-.2832087.6134911-.8128458.6091637-1.3613746 0 0 .0171431-7.0502921-.2483257-7.7046481zm-1.004288 7.7033106c.0006657.1081677-.1013609.3323607-.2408361.4717917l-9.6004871 9.6441429c-.1529567.1534744-.2599765.1227126-.368827.0133747l-7.2150952-7.2480701c-.0978656-.0989726-.0923732-.2641499.0116507-.369141l9.6004871-9.6421368c.0317014-.0327138.0709901-.057013.1143431-.0707186.1388094-.0140434 5.3087122-.0840933 5.7020056-.0840933 1.1094769 0 1.6740352.0994742 1.8795864.1727005.0952026.33537.1171725 7.1011159.1171725 7.11215zm-4.2102871-5.5430729c-.6745513 0-1.3105524.2644231-1.7911438.7450411-.4743931.4739659-.7394062 1.102292-.7456044 1.7684144-.0066518.6700532.2488372 1.2982281.7188461 1.7676584.4638107.4638365 1.0827289.7188861 1.7438254.7188861.6750049 0 1.311006-.2645743 1.7915974-.7444364.481196-.480618.7456044-1.1166546.7456044-1.7916969 0-.6611333-.2554889-1.2811442-.7194508-1.7445271-.463206-.4638365-1.0827289-.7193396-1.7436743-.7193396zm.9132596 3.4505019c-.5211067.520531-1.4193998.532777-1.9265983.0261551-.252163-.2521771-.3894317-.5905298-.3861058-.952165.0036354-.3667067.1519699-.7171324.412713-.9749939.2654666-.2654814.6160458-.4116776.9865803-.4116776.3564751 0 .6898202.1372763.9388085.386732.2492907.248851.3867105.5822146.3867105.9394654 0 .370404-.1460369.7210027-.4121082.986484z" fill="#fff" fill-rule="evenodd"/><path d="m31.9832375 12.7460893c.0000418.0001038.0000836.0002075.0001253.0003113l-.0002514-.0006221c.000042.0001034.0000839.0002069.0001259.0003106zm-.463449.1876569-.0002514-.0006221c-.1844503-.4581788-.8714752-.6831241-2.7693004-.6831241-.5422368 0-5.751976.0818977-5.8571586.0951507-.015529.0019676-.0309308.0048491-.0496247.0094735-.2332399.0544791-.4467708.1732831-.6161871.3427069l-9.6028042 9.6451327c-.4951191.4983156-.4995145 1.30342-.011816 1.7945565l7.2162674 7.2492476c.2331762.234261.5497127.3651655.8808649.3637184.3389162.000682.6640847-.1349046.9036715-.3772725l9.6005627-9.6438826c.3060828-.3054698.5389887-.7745699.5357639-1.1850287.0000277-.011392.0000277-.011392.0001116-.0663776.0004621-.3594021-.000263-.8367998-.0031295-1.3893289-.0043069-.8301464-.012662-1.6497674-.026016-2.4159233-.0362896-2.0820467-.1082634-3.5099526-.2009541-3.7384265zm-.5226273 7.6085569c.0007909.1904507-.1393506.4746856-.313658.6489367l-9.6005893 9.6442455c-.2407632.2415781-.5054183.2319078-.7230814.0132701l-7.2156839-7.2486636c-.1967108-.1989357-.1863833-.5208253.0122598-.7213144l9.598113-9.6397198c.0605358-.0624691.1356181-.1089058.2687119-.1454722.1327603-.0134314 5.2061829-.085363 5.7271698-.085363.971332 0 1.6502175.0755992 1.9634827.1871981l.1214063.0432502.035195.1239813c.0518281.1825748.0809654 1.468258.1037771 3.7434654.0130602 1.3026178.0228837 3.0772425.0228978 3.4361884zm-4.4602863-5.2923031c-.6082283 0-1.1806449.2380715-1.6144467.6718974-.4281843.4277988-.6667259.9935145-.6723138 1.5940398-.0059859.6029713.2231718 1.1664568.64564 1.588405.4167547.4167778.9720119.6456578 1.5670438.6456578.6083507 0 1.1809418-.2379926 1.6149269-.6713193.4341529-.4336314.6722749-1.0059971.6722749-1.614814 0-.5951326-.2293598-1.1514028-.6463477-1.5678706-.4161498-.4167163-.9719661-.6459961-1.5667774-.6459961zm1.0898893 3.3774255c-.6176798.616942-1.6740384.6312857-2.2800096.0260033-.2998281-.2998448-.4632537-.7028138-.4593119-1.1314151.0042889-.4326297.1792899-.8460524.485919-1.1492874.3121321-.3121494.7262094-.4849058 1.163362-.4849058.4226797 0 .8197352.1635497 1.1154291.4597993.2965555.2960325.4600899.6931691.4600899 1.1163981 0 .4373571-.1728431.85144-.4854785 1.1634076z" stroke="#fff" stroke-width=".5"/></g></svg>