<svg height="20" viewBox="0 0 20 20" width="20" xmlns="http://www.w3.org/2000/svg"><g fill="#c7a27b" fill-rule="evenodd"><path d="m9.99160604 20h-.00279798c-2.74762171-.0167879-5.12031338-1.0044768-7.05092334-2.9378847-1.95019586-1.9501959-2.93788472-4.3284835-2.93788472-7.07050926 0-2.75041969.98768886-5.12311136 2.94068271-7.05372132 1.92781197-1.95019586 4.30050364-2.93788472 7.05092333-2.93788472 2.74202576 0 5.12031336.98768886 7.07050926 2.93788472 1.9501958 1.93060996 2.9378847 4.30330163 2.9378847 7.05372132 0 2.74202576-.9904868 5.12031336-2.9378847 7.07050926-1.9501959 1.9334079-4.3256855 2.9210968-7.06771127 2.9378847zm0-18.8276441c-2.45942921 0-4.49356463.8477896-6.22271964 2.59373252-1.7487409 1.73195299-2.5965305 3.7688864-2.5965305 6.22551762 0 2.45383326.8477896 4.49636266 2.59373252 6.24230556 1.72635702 1.729155 3.76329043 2.5769446 6.22271964 2.5937325 2.45663124-.0167879 4.49636264-.8673755 6.24230554-2.5965305 1.7431449-1.7431449 2.5937325-3.7856743 2.5937325-6.23950756 0-2.45663122-.8477896-4.49356463-2.5937325-6.22271964-1.7431449-1.74594292-3.7856743-2.5965305-6.23950756-2.5965305z"/><path d="m6.93042672 5.45454545h-1.94805195c-.29220779.03405898-.43692022.18448614-.43692022.45128147 0 .33207505.14749536.49953169.43692022.49953169h1.16883117v7.64056429c0 .332075.1781076.4995316.53710575.4995316.35621521 0 .55102041-.1674566.58441558-.4995316v-8.28768488c0-.20435388-.11410018-.30369257-.34230055-.30369257z"/><path d="m12.2322556 8.60314576c-.4575866.03406962-.8506059.13343933-1.1790576.30094827l.3424881-2.49843847h2.554625c.2947645 0 .4575867-.16750895.4912741-.4996877-.0336874-.26687865-.1965096-.41735279-.4912741-.45142241h-3.0936228c-.2947644 0-.4267065.09936972-.3930192.30094828l-.49127402 3.1486003c-.06456745.39747885-.09825481.65016183-.09825481.74953154 0 .23280904.13194213.34921353.39301923.34921353.0645674 0 .1796659-.03123045.3452955-.09936968.4238993-.16750894.8169185-.24984385 1.1790577-.24984385.982548.0653001 1.5047022.71546193 1.5720769 1.94764633-.0982548 1.2662541-.67094 1.9306116-1.7180555 1.9987508-.5558415 0-1.0976466-.1987394-1.622608-.6018965-.26107704-.2328091-.44074297-.3492136-.53899778-.3492136-.26388434.0312305-.39301923.1817046-.39301923.4485833.29476442.9340753 1.12852661 1.4167282 2.50690121 1.4479586 1.8668414-.0312304 2.8493894-1.0817102 2.9476442-3.1457611-.1684368-1.69780254-.9376315-2.63187783-2.3131989-2.79654764z"/></g></svg>