<svg height="22" viewBox="0 0 18 22" width="18" xmlns="http://www.w3.org/2000/svg"><path d="m9.3 2c-.42 0-.7.27096774-.7.67741935v4.60645162c0 .94838709-.63 1.55806451-1.4 1.82903226v-6.43548388c0-.33870967-.35-.67741935-.7-.67741935-.42 0-.7.27096774-.7.67741935v6.43548388c-.84-.27096775-1.4-.9483871-1.4-1.82903226v-4.60645162c0-.33870967-.35-.67741935-.7-.67741935-.42 0-.7.27096774-.7.67741935v4.60645162c0 1.55806451 1.19 2.91290323 2.8 3.18387093v11.8548387c0 .3387097.28.6774194.7.6774194.35 0 .7-.2709677.7-.6774194v-11.8548387c1.61-.2709677 2.8-1.62580642 2.8-3.18387093v-4.60645162c0-.40645161-.35-.67741935-.7-.67741935zm7.2-1c-2.475 0-4.5 2.3375-4.5 5.15625 0 2.6125 1.65 4.74375 3.825 5.0875v.06875 11.06875c0 .34375.3.61875.675.61875s.675-.275.675-.61875v-11.06875s0 0 0-.06875c2.175-.34375 3.825-2.475 3.825-5.0875 0-2.81875-2.025-5.15625-4.5-5.15625zm0 9c-1.6744186 0-3-1.78571429-3-4s1.3255814-3.76177979 3-3.76177979 3 1.54749408 3 3.76177979-1.3953488 4-3 4z" fill="#fff" fill-rule="evenodd" transform="translate(-3 -1)"/></svg>