<svg height="24" viewBox="0 0 24 24" width="24" xmlns="http://www.w3.org/2000/svg"><g fill="#fff"><path d="m12 22.65c-5.88183259 0-10.65-4.7681674-10.65-10.65 0-5.88183259 4.76816741-10.65 10.65-10.65 5.8818326 0 10.65 4.76816741 10.65 10.65 0 5.8818326-4.7681674 10.65-10.65 10.65zm0-1.3c5.1638624 0 9.35-4.1861376 9.35-9.35 0-5.16386241-4.1861376-9.35-9.35-9.35-5.16386241 0-9.35 4.18613759-9.35 9.35 0 5.1638624 4.18613759 9.35 9.35 9.35z"/><path d="m14.951126 10.1334096c.2903661-.2110873.6968743-.14681914.9079616.1435469.2110873.2903661.1468191.6968744-.1435469.9079616l-3.8095239 2.7694076c-.4296442.3123382-1.0322073.005423-1.0322073-.5257543v-6.66666664c0-.35898509.2910149-.65.65-.65s.65.29101491.65.65v5.39052914z"/></g></svg>