<svg height="19" viewBox="0 0 18 19" width="18" xmlns="http://www.w3.org/2000/svg"><path d="m7.27500914 6.88654837c2.24369442 0 4.57731206-.48941042 5.97879856-1.42255295v1.69879794h1.2984038v-3.71951918c0-2.23606183-3.7482637-3.44327418-7.27500912-3.44327418-3.52674545 0-7.27720238 1.20721238-7.27720238 3.44327418v10.15145962c0 2.2360618 3.74826369 3.4432742 7.27500914 3.4432742v-1.285518c-3.70439868 0-5.97879858-1.257241-5.97879858-2.1577562v-3.0517458c1.40148654.9309673 3.73291093 1.4225529 5.97879858 1.4225529v-1.2876932c-3.70439868 0-5.97879858-1.25724096-5.97879858-2.15775612v-3.05392099c1.40148654.93096736 3.73510417 1.42037778 5.97879858 1.42037778zm0-5.60103034c3.70439866 0 5.97879856 1.25724099 5.97879856 2.15775615 0 .90051517-2.2743999 2.15775615-5.97879856 2.15775615-3.70439868 0-5.97879858-1.25724098-5.97879858-2.15775615 0-.90051516 2.27659314-2.15775615 5.97879858-2.15775615zm5.81649816 6.30578134c-3.2218838 0-4.90629954 1.22896393-4.90629954 2.44270173v6.5232971c0 1.2137379 1.686609 2.4427018 4.90629954 2.4427018 3.197758 0 4.8799805-1.2115627 4.9062995-2.4165999h.0021932v-6.549399c-.0021932-1.2137378-1.686609-2.44270173-4.9084927-2.44270173zm0 1.28551803c2.3818691 0 3.6100889.81133372 3.6100889 1.1571837 0 .3458501-1.2282198 1.1571838-3.6100889 1.1571838-2.3818692 0-3.610089-.8113337-3.610089-1.1571838 0-.34584998 1.2282198-1.1571837 3.610089-1.1571837zm0 8.8376646c-2.3818692 0-3.61008898-.8113337-3.61008898-1.1571838v-1.5574127c.82246858.4437321 2.03094918.7395535 3.61008898.7395535 1.5791397 0 2.785427-.2958214 3.6100889-.7395535v1.5574127c0 .3458501-1.2282198 1.1571838-3.6100889 1.1571838zm0-3.2627361c-2.3818692 0-3.61008898-.8113338-3.61008898-1.1571838v-1.5574127c.82246858.4437321 2.03094918.7395535 3.61008898.7395535 1.5791397 0 2.785427-.2958214 3.6100889-.7395535v1.5574127c0 .34585-1.2282198 1.1571838-3.6100889 1.1571838z" fill="#fff"/></svg>