<svg height="21" viewBox="0 0 21 21" width="21" xmlns="http://www.w3.org/2000/svg"><g fill="#c7a27b"><path d="m10.9764026 1.65858968c.0614319-.06399318.1300076-.13526841.2040392-.21201435.2116048-.21936316.4246794-.43876726.6258256-.64382408.1711974-.17431677.2956294-.29994638.4065644-.41066851.3030382-.30358969.6721722-.43859811 1.0496818-.37783467.2814149.04529618.5135672.18557752.7119204.38046501.0727541.0714829.136095.14609411.1912944.22105373.0061853.0083995.3952222.40152903 1.1671108 1.17938858.247055.24750451.2571936.64554245.0230606.90534818-.0235359.02870008-.0413521.05163661-.0612155.07877809-.059747.08163871-.1205489.17720778-.1774732.28422053-.1734686.3261066-.2689471.67614026-.2516371 1.03139325.022615.46413016.2356474.92916351.7092299 1.40412523.0339894.03405132.0680291.06665945.1021123.09784732.4321932.39547896.8582338.55694148 1.2952392.54636812.3500221-.0084688.7042829-.12836828 1.0410215-.32713754.1266876-.07478088.2410388-.1550336.3398503-.23437472.033411-.02682751.062008-.05113706.0854331-.07210481.2744845-.26759748.6859059-.26526452.9401095-.01059837l1.4292317 1.43183256c.1518747.15215105.2198073.36913348.1818754.58092539l-.1537911.85868868c-.023663.13212148-.0871318.25381932-.1818753.34873523l-11.15063023 11.17092137c-.4578146.4586477-.4578146.4586477-.63710521.638263-.27761117.2791541-.58736789.4383886-.91313678.4669192-.27653506.0242188-.52513697-.0468793-.73539641-.1763827-.10026057-.0617528-.1772766-.1270815-.23404503-.187195-.00710992-.0071228-.01755718-.0175891-.05395254-.0540507l-1.38939466-1.391923c-.32091129-.3214952-.27345281-.4884964-.1094382-.7863988.01663079-.0302067.03106964-.0520556.04799783-.075632.0127257-.0177235.02406465-.0324465.043326-.0569022-.00199512.0025331.03044133-.0385363.04068984-.0516122.01697803-.0216621.03257529-.0418484.04842472-.0627549.09077189-.1197347.17467823-.2433196.25361948-.3798914.18661831-.3228578.3059818-.6527855.33402666-.9759069.03371772-.3884818-.06454565-.7571917-.3339169-1.1245793-.07190148-.0980643-.15597743-.1957422-.25322159-.2931635-.1578828-.1583484-.31847074-.2838195-.48146372-.3795706-.34910039-.2050809-.71085381-.2753583-1.09327386-.2351721-.31961889.0335868-.64254168.1435783-.95145385.307537-.13582286.0720896-.25896132.1493563-.36595615.2257769-.03624461.0258875-.06739826.0493888-.09306414.0697296-.28046944.2410213-.66967694.2265845-.9126181-.0167987l-1.22761592-1.2298499c-.34686413-.3485201-.5051802-.7028388-.48463703-1.0730681.01702553-.3068344.14923643-.5623074.34494113-.7696394.06555548-.0694503.13424444-.1288527.20358601-.1798231.00532031-.0039108 3.45649286-3.45849237 10.35351765-10.36374479.0319504-.03335388.0510561-.05327609.0725831-.07570063zm-9.58400891 11.49666632c-.01471627.0094364-.03935735.0243251-.07591966.0452332.02335112-.0133533.04654099-.0269679.06956548-.0408406.0036896-.0025996.00589514-.0040983.00635418-.0043926zm-.03201641-.0191026c.0037906.0040666.02179059.0223171.05399998.0547517.45878871.4596235.46035078.4611884.84008102.8416095.06939991-.0417192.14171188-.0827072.21681955-.1225715.44721443-.2373642.92618248-.4005066 1.42893106-.4533374.65187037-.068501 1.29430876.0563047 1.89401394.4086046.26123394.1534632.51037979.3481266.74586318.5843046.14333795.1435987.27084704.2917363.3826648.4442413.4615026.6294298.64448105 1.3160125.58365814 2.0167889-.0466003.5369094-.22993947 1.0436695-.50576297 1.520856-.04450141.0769893-.0898388.1505292-.13620489.221538.08919837.0893607.14755675.1478252.32963493.3302347l.66363591.6648433c.03129496-.0026633.05388918-.0224473.07972366-.0484244l11.78860251-11.81005079-.1818754.34873523.0932442-.52062665-.7790648-.78048228c-.0575464.03791364-.1172179.07522127-.1789631.11166806-.5149933.30398893-1.0772344.49427921-1.6755395.50875523-.7771142.0188023-1.5311301-.26695747-2.2119858-.88997525-.0487705-.04462748-.097113-.09093688-.1452767-.13918835-.6997181-.70175566-1.0529841-1.47290776-1.0917952-2.26943075-.0300357-.61642329.1272477-1.19303968.4042655-1.71380992.0195039-.03666561.0393266-.07249705.0594089-.10748312l-.8008586-.80231573c-.0383051-.0383748-.0717194-.08135399-.09948-.12795646-.1230292.06019259-.2277565.16606923-.340201.28054616-.233911.23843444-.4445334.45531343-.6537814.67223334-.0732669.07595314-.1411129.14646991-.2018372.20972596-.0212276.02211269-.0400396.04172864-.0562235.05862008-.0152496.01592807-3.48571431 3.4923709-10.41139425 10.42932854-.02895693.0290039-.06053318.0552016-.09430297.0782674z"/><path d="m8.38070382 5.51707248.71091935.71091935c.21775002.21775002.57079256.21775002.78854258 0 .21775005-.21775002.21775005-.57079255 0-.78854257l-.71091935-.71091935c-.21775002-.21775002-.57079256-.21775002-.78854258 0s-.21775002.57079255 0 .78854257z"/><path d="m10.2180244 7.40671142.6383881.63717988c.23225.23181038.6082542.23126251.839829-.0012237.2315748-.23248622.2310275-.60887298-.0012224-.84068336l-.6383881-.63717989c-.23225-.23181038-.6082542-.23126251-.8398291.00122371-.23157476.23248621-.23102744.60887297.0012225.84068336z"/><path d="m12.9571548 10.1458419.6383882.6371798c.2322499.2318104.6082542.2312625.839829-.0012237s.2310275-.6088729-.0012225-.84068333l-.6383881-.63717988c-.23225-.23181038-.6082542-.23126251-.839829.0012237-.2315748.23248622-.2310275.60887298.0012224.84068341z"/><path d="m14.7821957 11.9696744.6371798.6383882c.2318104.2322499.6081972.2327972.8406834.0012224s.2330341-.607579.0012237-.839829l-.6371799-.6383881c-.2318104-.23225-.6081971-.2327973-.8406833-.0012225-.2324863.2315748-.2330341.6075791-.0012237.839829z"/></g></svg>