<svg height="24" viewBox="0 0 24 24" width="24" xmlns="http://www.w3.org/2000/svg"><g fill="#fff"><path d="m2.22582795 10.7267512c2.43727586-2.77093036 5.99855147-4.36006029 9.77036275-4.36006029 3.772497 0 7.3337726 1.58981109 9.7703627 4.36074149.1190572.1367311.288176.220554.4697586.2328336.1815825.0122796.3605794-.0480019.4971967-.1674429.284951-.2472785.3144122-.6770673.0658352-.96042576-2.6971879-3.06859424-6.6342731-4.82801242-10.8031532-4.82801242-4.16819435 0-8.10527953 1.75873703-10.80315326 4.82596896-.24682446.28351262-.21666558.71182102.06748815.95844862.28415374.2466276.71552488.2188983.96530236-.0620513z"/><path d="m18.9253509 13.4275228c.1144052.1405416.2805403.2299333.4615549.2483473.1810145.018414.3619442-.035672.5026572-.1502612.2935263-.2372915.3380293-.6659033.0994386-.9577011-1.9476261-2.3779051-4.8615218-3.74157343-7.9928109-3.74157343-3.13060336 0-6.04381323 1.36366833-7.99281097 3.74021113-.15472192.1887198-.19632552.44509-.10913913.6725382.0871864.2274483.2899171.3914198.5318254.4301481.24190831.0387284.4862426-.0536702.6409645-.2423901 1.68702831-2.0577632 4.21345608-3.2388825 6.9291602-3.2388825 2.7170757.0006812 5.2428176 1.1811193 6.9291602 3.2395636z"/><path d="m16.0155699 16.0663095c.2248871.2853533.6350893.346396.9342982.1390341.299209-.2073619.3830993-.6108273.1910731-.9189542-1.161032-1.6524772-3.08397-2.6387867-5.1447505-2.6387867-2.09164081 0-4.0303518 1.0094687-5.18726918 2.7000904-.19981498.310947-.11441477.7233488.19273494.9307265s.72465196.1345196.94223736-.1644294c.90112-1.318031 2.41601658-2.1040816 4.05298268-2.1040816 1.6115921 0 3.1148303.7690218 4.0186934 2.0564009z"/><path d="m10.624623 18.6485605c-.0000001.4791612.2614193.9219243.6857838 1.1615049s.9472032.2395806 1.3715678 0c.4243645-.2395806.6857838-.6823437.6857838-1.1615049 0-.7407189-.6140718-1.3411902-1.3715677-1.3411902-.757496 0-1.3715677.6004713-1.3715677 1.3411902z"/></g></svg>