<svg height="19" viewBox="0 0 19 19" width="19" xmlns="http://www.w3.org/2000/svg"><g fill="none"><path d="m14.625 6.30994152v4.74904968c0 1.1809123-.4670208 2.2908831-1.3169583 3.1259094s-1.9789167 1.2946316-3.1809167 1.2946316h-4.30054167c-1.202 0-2.32866666-.4596053-3.17860416-1.2946316s-1.31464584-1.9449971-1.31464584-3.1259094v-4.74904968zm.7104583-1.30994152h-14.7172083c-.34516667 0-.61825.26673684-.61825.60586842v5.45312278c0 3.1651462 2.6049375 5.7304825 5.82658333 5.7304825h4.30054167c3.2216667 0 5.8312083-2.5653363 5.8312083-5.7304825v-5.45312278c0-.33913158-.2777083-.60586842-.622875-.60586842zm.6020417 12.6900585c.0315417 0 .0625.0304152.0625.0614035v.5095672c-.0061875.0363509-.0929792.2158129-.3979583.4179123-.3346875.2217895-.7109584.3210585-.935375.3210585h-13.33333337c-.22441666 0-.6006875-.099269-.935375-.3210585-.30497916-.2020994-.39179166-.3815614-.39795833-.4179123v-.5095672c0-.0309883.03095833-.0614035.0625-.0614035z" fill="#c6a27d"/><path d="m15.5224237 6.32292941c-.2381922 0-.4707769.02305668-.6955152.06685395v6.54336234c.2289271.0445521.4619316.0669489.6955152.066854 1.9206219 0 3.4775763-1.4946992 3.4775763-3.33852471 0-1.84382547-1.5569544-3.33854558-3.4775763-3.33854558zm.6955153 5.22723249v-3.77741554c.8096232.27557435 1.3910305 1.01816658 1.3910305 1.88870776 0 .87052028-.5814073 1.61311258-1.3910305 1.88870778zm-12.44398515-6.89636966c-.24440841 0-.48151391-.12390099-.60861932-.34355505-.18926709-.32705023-.21660953-.67621819-.07907139-1.0097368.09539427-.23131803.25349358-.41815022.40639826-.59880614.14857945-.17556467.30222311-.35709695.41094084-.59010511.02658173-.05696358.03516699-.23966434-.10124094-.56302133-.11730299-.27805738-.27405474-.49906771-.27564139-.50127948-.21893516-.30299199-.13997244-.71824186.17566107-.928402.31561179-.21018099.74952637-.13412523.96846153.16886676.02360405.03269667.23571447.33086866.40828919.73017708.27405475.63415277.30567896 1.18578138.09395977 1.63952862-.18339868.39309042-.42467727.6781587-.60083825.88633658-.05051179.05967613-.11395582.13464688-.15486082.18996206.13160453.30862574.00491208.66991672-.30628753.83590399-.1030803.05516544-.21913594.08412533-.33715102.08413082zm3.72574483 0c-.24443014 0-.48149217-.12390099-.60861932-.34355505-.18926709-.32705023-.21660953-.67621819-.07907139-1.0097368.09539426-.23131803.25349358-.41815022.40639826-.59880614.14857944-.17556467.30222311-.35709695.41094084-.59010511.02658172-.05696358.03516699-.23966434-.10124094-.56302133-.11730299-.27805738-.27405475-.49906771-.27564139-.50127948-.21893516-.30299199-.13997245-.71824186.17566107-.928402.31561179-.21018099.74952637-.13412523.96848326.16886676.02360405.03269667.23571447.33086866.40826746.73017708.27405475.63415277.30565722 1.18578138.09395977 1.63952862-.18339868.39309042-.42465554.6781587-.60083825.88633658-.05051179.05967613-.11395583.13464688-.15486082.18998293.1315828.30862574.00489034.66991671-.30630926.83588312-.10307677.05515508-.21912256.08411438-.33712929.08413082zm3.76373732 0c-.2444084 0-.4814921-.12390099-.6086193-.34355505-.1892671-.32705023-.2166313-.67621819-.0790931-1.0097368.0953942-.23131803.2534936-.41815022.4063765-.59880614.1485795-.17556467.3022231-.35711782.4109408-.59010511.0265818-.05696358.035167-.23966434-.1012409-.56302133-.117303-.27805738-.2740547-.49906771-.2756414-.50127948-.2189134-.30301285-.1399507-.71824186.1756828-.92842286.3155901-.210181.7495264-.13412523.9684616.16888762.0236257.03267581.2357144.33086866.4082674.73017708.2740548.63415277.3056572 1.18576052.0939598 1.63952862-.1833987.39309042-.4246556.6781587-.6008383.88631572-.05049.05967613-.1139341.13464687-.1548608.18996206.1316045.30862574.0049121.66991671-.3062875.83590399-.1030575.05518486-.2191026.08415304-.3371076.08415168z" fill="#c7a27b"/></g></svg>