<svg height="17" viewBox="0 0 20 17" width="20" xmlns="http://www.w3.org/2000/svg"><path d="m19.7744529 1.19851066c-1.3555159-.75234976-3.0460027-1.19851066-4.8838767-1.19851066-1.8401072 0-3.5372935.45272209-4.8905762 1.20507185 0 0-.00223314 0-.00223314.00218706-1.35328272-.75453682-3.05046896-1.20725891-4.88834301-1.20725891s-3.52836088.44397384-4.88387673 1.19632359c-.14068781.07873428-.22554712.22964164-.22554712.39148432v14.22028519c0 .2580735.20991514.4439739.44216168.4439739.06476105 0 .13175525-.0153095.19428316-.0459284 1.2795891-.6211259 2.81598928-.9819914 4.47297901-.9819914 1.64135775 0 3.16882537.3608655 4.44171505.9710561.08039303.0371801.15855293.0765472.23447968.1159144.13397845.0700249.29478442.0700249.42876282 0 .0022332 0 .0022332-.0021871.0044663-.0021871.0111657-.0043741.0200983-.0109353.031264-.0174965.0669942-.032806.1317552-.0656119.1987494-.0984178 1.2728897-.6080036 2.8003573-.9710561 4.4417151-.9710561 1.6569897 0 3.1933899.3608654 4.472979.9819914.064761.0306189.1295221.0459283.1942831.0459283.2322466 0 .4421617-.1859004.4421617-.4439738v-14.21591112c0-.16184268-.0848593-.31275005-.2255471-.39148432zm-4.8838767 13.16612074c-.8508263 0-1.6904869.0940437-2.4944172.2755699-.6766414.1465333-1.3287182.3543043-1.9472979.6189389v-.7654721c.0625279-.0306189.1228227-.0634248.1898169-.0918566 1.2684234-.6058166 2.7400625-.9251278 4.2518982-.9251278.8485931 0 1.6815542.0984179 2.476552.2930665.623046.1530944 1.214828.3630525 1.7619473.6255001v.7764074c-.5739169-.2318287-1.1768647-.4133549-1.8021438-.5445787-.7838321-.172778-1.6033944-.2624476-2.4363555-.2624476zm-14.01741854.8070263v-.7764074c.54711925-.2624476 1.13666816-.4724057 1.75971416-.6233131.79499776-.1968356 1.62795891-.2952535 2.47655203-.2952535 1.51406878 0 2.98347477.3193112 4.25189817.9273148.06476105.032806.12728897.0634249.18981688.0940437v.761098c-.66100938-.2843182-1.36444841-.5008374-2.09468513-.6495577-.75926753-.1596557-1.54756587-.2427641-2.34702992-.2427641-.75033497 0-1.48950424.0721731-2.20187584.2121452-.70790531.1334108-1.39124609.3324336-2.03439035.5926941zm14.01137364-13.92699855c.7771058 0 1.5395095.09256277 2.2641081.27357441.6153838.15427129 1.1929624.36819414 1.7222344.6397116v11.38110694c-1.1572575-.5224654-2.5224433-.8227801-3.9863425-.8227801-1.5416098 0-2.9782053.3393968-4.1774685.913286v-11.36465141c.5796788-.32088428 1.2223663-.56977529 1.9112601-.74461608.7266989-.18306859 1.4891026-.27563136 2.2662084-.27563136zm-11.98749167.1779943c.76839778-.18602485 1.57923612-.27799219 2.40571047-.27799219s1.6373127.09405751 2.41241162.28008236c.73042462.17557401 1.41394125.4284842 2.03044644.75455023v11.55026205c-1.27545096-.5831566-2.80331165-.9280341-4.44285806-.9280341-1.55466526 0-3.00657966.3051643-4.23735632.8360667v-11.56489316c.56289604-.27590202 1.17716752-.49536954 1.83164585-.65004189z" fill="#c7a27b"/></svg>