<svg height="20" viewBox="0 0 21 20" width="21" xmlns="http://www.w3.org/2000/svg"><path d="m13.7329131 2.86363636h-10.284008c-.31771731 0-.58526874.25454546-.58526874.55681818s.26755143.55681818.58526874.55681818h10.284008c.3177173 0 .5852687-.25454546.5852687-.55681818s-.2675514-.55681818-.5852687-.55681818zm.5852687 3.26136364c0-.30227272-.2675514-.55681817-.5852687-.55681817h-10.284008c-.31771731 0-.58526874.25454545-.58526874.55681817s.26755143.55681818.58526874.55681818h10.284008c.3177173 0 .5852687-.25454546.5852687-.55681818zm-3.8181818 8.5909091c0 .3022727-.2675515.5568182-.58526876.5568182h-6.46582614c-.31771731 0-.58526874-.2545455-.58526874-.5568182s.26755143-.5568182.58526874-.5568182h6.46582614c.31771736 0 .58526876.2545455.58526876.5568182zm-8.88757912 3.1450049h8.63425372c.3294193 0 .5894872.2945059.5894872.6236595s-.2774057.6063356-.606825.6063356h-8.61691592c-.8842308 0-1.61242088-.7276027-1.61242088-1.6111203v-15.86866852c0-.88351757.72819008-1.61112028 1.61242088-1.61112028h13.95697642c.8842308 0 1.6124209.72760271 1.6124209 1.61112028v5.20928888c0 .32915362-.2774058.60633563-.6068251.60633561s-.6068251-.27718201-.6068251-.60633561v-5.20928888c0-.20788651-.1733785-.39844912-.3987707-.39844912h-13.95697642c-.20805433.00000003-.39877077.17323877-.39877077.39844912v15.85134462c.00000002.2078865.17337862.3984491.39877077.3984491zm1.25121549-8.79273218c-.00003254-.17050228.09092801-.3280668.23861007-.41332733.14768205-.08526053.32964325-.08526053.47732531 0 .14768205.08526053.2386426.24282505.23861006.41332733.00003254.17050227-.09092801.3280668-.23861006.41332733-.14768206.08526053-.32964326.08526053-.47732531 0-.14768206-.08526053-.23864261-.24282506-.23861007-.41332733zm1.9090909 0c0-.26359045.21368228-.47727273.47727273-.47727273s.47727273.21368228.47727273.47727273-.21368228.47727273-.47727273.47727273-.47727273-.21368228-.47727273-.47727273zm1.90909092 0c-.00003254-.17050228.09092801-.3280668.23861006-.41332733.14768206-.08526053.32964326-.08526053.47732531 0 .14768206.08526053.23864261.24282505.23861007.41332733.00003254.17050227-.09092801.3280668-.23861007.41332733-.14768205.08526053-.32964325.08526053-.47732531 0-.14768205-.08526053-.2386426-.24282506-.23861006-.41332733zm6.88986651 9.45872158 1.7312924-1.2791414 3.7706781-6.9793182.2692778-.49814117.5707082-1.02733565c.001581-.03063155-.0033106-.03726544-.0100477-.04118997l-1.4828829-.88976761c-.0066105-.00379398-.0144085-.00466363-.0216412-.00241347-.0075056.00206959-.0138721.0072431-.017622.01431996l-.5702445 1.02653116c-.0060522.01502752-.0118754.03015385-.0174675.04537331l-4.0224883 7.43289054zm2.6275454-.6419842c-.078093.1496831-.2006577.2690163-.3493501.340139l-2.3925843 1.767307-.0938298.0262264c-.1947804.0541817-.4022562.0257115-.5768914-.079162-.1750286-.1052803-.3022842-.2791088-.3533692-.4826949l-.0241144-.0962172.2757702-3.0358291c-.0148829-.1676632.0221097-.3358888.1055779-.4801205l4.0288261-7.44399251c.0162309-.0382938.0344713-.075944.0548758-.11295061l.5700899-1.02620936c.147018-.26615592.3898215-.46040645.6747403-.5398138.2847103-.07989443.5882692-.03843713.8435413.11520318l1.4824191.88976761c.5310097.31945066.7127374 1.02644472.4059263 1.57921682l-.3037491.54689334z" fill="#c7a27b"/></svg>