<svg height="19" viewBox="0 0 19 19" width="19" xmlns="http://www.w3.org/2000/svg"><g fill="none"><path d="m10.2847826 14h-1.44565217zm-9.08695651 0v-12.63128492h-.49565218c-.37173913 0-.70217391-.31284916-.70217391-.70391061s.33043478-.66480447.70217391-.66480447h17.59565219c.4130435 0 .7021739.31284916.7021739.66480447s-.3304348.66480447-.7021739.66480447h-.4543478v12.00558656c-.0413044.4301676-.1239131.5865922-.4956522.6256984zm1.36304348-1.8379888v.4692737h13.87826083c.0413044-.0391061.0413044-.1173184 0-.1955307v-.3128492-10.87150835h-13.87826083zm2.18913043-1.0167598c-.41304348 0-.66086957-.3128492-.66086957-.6648045s.33043479-.66480444.66086957-.66480444h5.2869565c.4130435 0 .6608696.31284914.6608696.66480444s-.3304348.6648045-.6608696.6648045zm0-3.48044693c-.41304348 0-.66086957-.31284916-.66086957-.66480447s.33043479-.66480447.66086957-.66480447h7.0630435c.4130435 0 .6608695.31284916.6608695.66480447s-.3304347.66480447-.6608695.66480447zm0-3.48044693c-.41304348 0-.66086957-.31284916-.66086957-.66480447 0-.3519553.33043479-.66480447.66086957-.66480447h7.0630435c.4130435 0 .6608695.31284917.6608695.66480447 0 .35195531-.3304347.66480447-.6608695.66480447z" fill="#c8a378"/><path d="m9 14c0-.4142136.33578644-.75.75-.75.4142136 0 .75.3357864.75.75v4c0 .4142136-.3357864.75-.75.75-.41421356 0-.75-.3357864-.75-.75z" fill="#c7a27b"/></g></svg>