<svg height="14" viewBox="0 0 24 14" width="24" xmlns="http://www.w3.org/2000/svg"><path d="m22.6580871 2.42891566h-.8933296c-.0812118 0-.1218177 0-.2030295.04048193v-1.13349397c0-.72867469-.6090884-1.33590362-1.3399944-1.33590362h-1.6242356c-.730906 0-1.3399944.60722893-1.3399944 1.33590362v3.60289155h-10.51692575v-3.60289155c0-.72867469-.60908837-1.33590362-1.33999437-1.33590362h-1.62423563c-.73090603 0-1.3399944.60722893-1.3399944 1.33590362v1.13349397c-.08121179 0-.12181768-.04048193-.20302947-.04048193h-.8933296c-.73090603 0-1.3399944.60722892-1.33999438 1.33590362v6.23421686c0 .72867466.60908837 1.33590366 1.33999438 1.33590366h.8933296c.08121179 0 .12181768 0 .20302947-.040482v.8096386c0 .7286747.60908837 1.3359036 1.3399944 1.3359036h1.62423563c.73090603 0 1.3399944-.6072289 1.33999437-1.3359036v-3.60289157h10.51692575v3.60289157c0 .7286747.6090884 1.3359036 1.3399944 1.3359036h1.6242356c.730906 0 1.3399944-.6072289 1.3399944-1.3359036v-.8096386c.0812118 0 .1218177.040482.2030295.040482h.8933296c.730906 0 1.3399944-.607229 1.3399944-1.33590366v-6.23421686c.0406059-.7286747-.5684825-1.33590362-1.3399944-1.33590362zm-20.34355133 7.57012048c0 .08096386-.08121179.12144576-.12181768.12144576h-.89332961c-.08121178 0-.12181768-.0809638-.12181765-.12144576v-6.23421686c0-.08096386.08121179-.12144579.12181765-.12144579h.89332961c.08121178 0 .12181768.08096386.12181768.12144579zm3.20786536 2.14554216c0 .0809639-.08121178.1214458-.12181765.1214458h-1.62423563c-.08121179 0-.12181768-.0809639-.12181768-.1214458v-10.84915661c0-.08096386.08121178-.12144579.12181768-.12144579h1.62423563c.08121178 0 .12181768.08096386.12181765.12144579zm11.65389067-4.81734937h-10.35450216v-1.21445786h10.35450216zm3.1672595 4.81734937c0 .0809639-.0812118.1214458-.1218177.1214458h-1.6242356c-.0812118 0-.1218177-.0809639-.1218177-.1214458v-10.84915661c0-.08096386.0812118-.12144579.1218177-.12144579h1.6242356c.0812118 0 .1218177.08096386.1218177.12144579zm2.4769593-2.14554216c0 .08096386-.0812118.12144576-.1218176.12144576h-.8933296c-.0812118 0-.1218177-.0809638-.1218177-.12144576v-6.23421686c0-.08096386.0812118-.12144579.1218177-.12144579h.8933296c.0812117 0 .1218176.08096386.1218176.12144579z" fill="#c7a27b"/></svg>