<svg height="20" viewBox="0 0 21 20" width="21" xmlns="http://www.w3.org/2000/svg"><g fill="none" fill-rule="evenodd"><path d="m11.6052471 1.54196302c-.3339841-.03698436-.6707749-.05689901-1.0131788-.05689901-4.9087248 0-8.93056738 3.93456615-9.12141546 8.88762449l.40134228-.57752492c-1.10579622.44665722-1.84673582 1.53342812-1.84673582 2.75960172 0 1.6386913 1.31067725 2.970128 2.93007932 2.970128.08139109 0 .16278219-.0028449.24136669-.0085348l-.0533252-.6458037-.55851129.3129445c1.59133618 2.9388336 4.63648566 4.8051209 8.00439288 4.8051209 3.3258085 0 6.3372789-1.8179232 7.9454546-4.6998578l-.5444784.3271693c1.6053692-.0170697 2.8964003-1.3399715 2.8964003-2.970128 0-1.083926-.5781574-2.0654339-1.4931056-2.5889047l.3255644.5547653c-.0252593-1.9374111-.6370958-3.77809389-1.7372788-5.314367-.2076876-.29018492-.6062233-.35277383-.8924954-.14224751-.2862722.21052631-.3480171.61450924-.1403295.90469416.9458206 1.3200569 1.4734594 2.90184922 1.4931055 4.56899005l.0056132.3726885.3199512.1820768c.5164125.2958748.8419768.8477952.8419768 1.4594594 0 .918919-.7297132 1.6642959-1.633435 1.6728308l-.3676632.0028449-.1824283.3243243c-1.3836486 2.4836416-3.9741306 4.0483642-6.8340452 4.0483642-2.89640021 0-5.5149481-1.6045519-6.88456372-4.1337127l-.19926785-.3669985-.41256864.0341394c-.04490543.0028449-.08981086.0056899-.13752288.0056899-.91214155 0-1.65027456-.7482219-1.65027456-1.6728308 0-.6913229.41818182-1.3058321 1.04124466-1.5561877l.38730934-.1564723.01683954-.4210526c.157169-4.26173544 3.61769371-7.64438124 7.83880411-7.64438124.2946919 0 .5865772.0170697.8728493.04836415.3508237.03982931.6651617-.21621621.704454-.57183499.0392922-.35561878-.2133008-.6742532-.5641245-.7140825zm3.2219646 11.68136558c-.0392922.0768136-.0813911.1564723-.1262965.2389758-.8644295 1.5334282-2.4697987 2.4978663-4.2435632 2.4978663-1.86918849 0-3.54752894-1.0725462-4.36985963-2.7396871-.157169-.3186344-.54167175-.4495021-.85600976-.2901849s-.44344112.5490754-.28627212.8677098c1.03843808 2.0995733 3.15460647 3.4537696 5.51214151 3.4537696 2.2368518 0 4.2632093-1.2176387 5.352166-3.1493599.0589384-.1024182.1122636-.2048364.1627822-.3072546.157169-.3214794.0280659-.7083926-.2890787-.8677098-.3171446-.1536273-.6988408-.0227596-.8560098.2958748zm-1.3331299-11.90042675c-.3508237-.0056899-.6342892-.30156472-.6258695-.6571835.0056132-.35846373.2946919-.64295875.6483222-.63726885.7690055.0113798 1.5099451.32147938 2.0684563.88193457 1.1871874 1.18634424 1.1984137 3.12660028.0252594 4.32716927-1.1703478 1.20341394-3.0816352 1.21479374-4.2688225.02560455-.252593-.25320056-.252593-.66287339-.0056132-.91607396.2497865-.25604552.6539353-.25604552.9037218-.0056899.6820012.685633 1.7849909.6799431 2.4613789-.01422476.676388-.6913229.6707749-1.80938833-.014033-2.49502133-.3227577-.32432433-.7493593-.50071124-1.1928004-.50924609zm1.7176327 8.13940256c.2357535.23613087.3816961.56330019.3816961.92460879 0 .7140825-.5725442 1.2944524-1.2769982 1.2944524-.7044539 0-1.2769981-.5803699-1.2769981-1.2944524 0-.71408247.5725442-1.29445232 1.2769981-1.29445232.3480171 0 .6623551.13940256.8953021.36984353zm-7.61147045 0c.23575351.23613087.38169616.56330019.38169616.92460879 0 .7140825-.57254424 1.2944524-1.27699817 1.2944524-.70445394 0-1.27699817-.5803699-1.27699817-1.2944524 0-.71408247.57254423-1.29445232 1.27699817-1.29445232.34801708 0 .66516168.13940256.89530201.36984353z" fill="#c6a27d"/><g fill="#c5a27f" transform="translate(1.818182 9.090909)"><path d="m.15931273.01145311s-.07266896.42662849-.10061857.70150323c-.0279496.27487473-.04751432.60701503-.04471936.65282748.00279496.04294918.07266897.17179671.07266897.17179671l.43042387-.16034359.20403209-.42376521v-.46385111z"/><path d="m1.66020636 7.07229778s-.2459565-.35218325-.38849947-.58697208c-.14254297-.23478884-.29906074-.52684324-.3158305-.56692914-.01676976-.04008589-.00558992-.18897637-.00558992-.18897637l.45557851-.04867574.36334483.28919113.19564721.41803865z"/><path d="m16.3924416 7.26986399s.2487514-.34931997.3940894-.5841088c.1453379-.23478883.3074456-.52397996.3242153-.56406586.0167698-.04008589.0083849-.18897637.0083849-.18897637l-.4555785-.05153902-.3661398.28632785-.2012371.41517538z"/><path d="m18.049853.1861131s.0726689.42662849.1006185.70150322c.0307446.27487473.0475144.60701503.0447194.65282749-.002795.04294917-.072669.17179671-.072669.17179671l-.4304238-.1603436-.2040321-.42376521v-.46385111z"/></g></g></svg>