<svg height="20" viewBox="0 0 13 20" width="13" xmlns="http://www.w3.org/2000/svg"><path d="m12.6840317 2.50712251-.749511-1.36752137h.0576547c.3459282 0 .5765469-.28490028.5765469-.56980057s-.2882734-.56980057-.5765469-.56980057l-11.12735506.05698006c-.34592813 0-.57654689.28490028-.57654689.56980057 0 .28490028.17296407.51282051.46123752.56980057l-.69185628 1.36752136c-.05765469.05698006-.05765469.17094018-.05765469.22792023v14.98575501c0 .1139601.05765469.2279202.11530938.3418803l1.26840317 1.6524217c.11530938.1139601.28827345.2279202.46123752.2279202h9.22475033c.1729641 0 .3459281-.1139601.4612375-.2279202l1.0377844-1.4814815c.0576547-.1139601.1153094-.2279202.1153094-.3418804v-15.21367516c.0576547-.05698006.0576547-.17094018 0-.22792023zm-11.47328322 14.81481479v-14.07407405h10.37784412v14.07407405zm9.45536912-16.1253561.8071656 1.48148148h-10.14722534l.74951097-1.48148148 8.59054877-.05698006zm.172964 17.7207977h-8.6482034l-.74951096-.968661h10.08957066z" fill="#c6a27d"/></svg>