<svg height="18" viewBox="0 0 20 18" width="20" xmlns="http://www.w3.org/2000/svg"><path d="m18.2368421 4.24324951h-2.0842105v-3.7289638c0-.30857142-.2605263-.51428571-.5731579-.51428571h-11.35894738c-.31263158 0-.5731579.20571429-.5731579.51428571v3.7289638l-2.24052631.05142857c-.78157895 0-1.24699104.48817906-1.24699104 1.25960763v7.55999999c0 .7714286.63928287 1.2202358 1.42086182 1.2202358h2.08421053l-.017555 3.1511928c0 .3085714.26052632.5142857.5731579.5142857h11.35894738c.3126316 0 .5731579-.2057143.5731579-.5142857l.017555-3.1511928h2.0842105c.7815789 0 1.4861669-.4488072 1.4861669-1.2202358v-7.55999999c0-.77142857-.7221429-1.3110362-1.5037219-1.3110362zm-13.56808343-3.22081188h10.46248263v3.09798188h-10.46248263zm10.44176763 15.94899097h-10.42105262v-6.1714286h10.42105262zm3.4272237-4.203c0 .1002857-.4064211.5014285-.5080263.5014285h-2.0321053l.0508027-2.9082857c0-.3008571-.2540132-.5515714-.558829-.5515714h-11.07497368c-.30481579 0-.55882895.15042857-.55882895.5014286v3.0085714h-2.03210526c-.40642105 0-.50802632-.4011429-.50802632-.5014286v-7.01999997c0-.10028572.40642106-.50142857.50802632-.50142857h16.25684209c.1016053 0 .5080263.40114285.5080263.50142857v6.96985717zm-11.24301316 1.7729999h5.21052636c.3126315 0 .5210526-.234.5210526-.585 0-.3509999-.2084211-.5849999-.5210526-.5849999h-5.21052636c-.31263158 0-.52105263.234-.52105263.5849999 0 .351.20842105.585.52105263.585z" fill="#c7a27b"/></svg>