<svg height="19" viewBox="0 0 22 19" width="22" xmlns="http://www.w3.org/2000/svg"><g fill="#c6a27d"><path d="m10.3637492 13.1107h-1.45086671c-.30810437 0-.53884673.2727897-.64141586.5292586-.04033594.100858-.06171053.2085409-.06171053.3128192v2.9555555c0 .1055556 0 .2111111-.21463415.2111111h-2.73658536c-.75121952 0-.75121952-1.1611111-.75121952-1.1611111v-5.7527777c0-.1583334-.05365853-.26388893-.16097561-.36944449-.10731707-.10555555-.21463414-.15833333-.37560975-.15833333 0 0-1.50243903 0-2.46829269 0 1.39512196-1.21388889 7.88780488-6.80833334 8.79999998-7.6.5902439.52777778 3.702439 3.16666666 6.1707317 5.27777778.2146342.21111111.5365854.15833333.7512195-.05277778.2146342-.21111111.2146342-.66929322 0-.88040433-2.5756097-2.21666666-6.0634146-5.17222222-6.2780487-5.38333333-.1609756-.15833333-.4292683-.31338297-.6439025-.31338297-.2146341 0-.51668719.08545396-.6776628.24378729-.32195122.26388889-8.8 7.6-9.17560975 7.91666667-.10731707.10555556-.44916645.79166667-.2345323 1.26666669.16097561.3166666.46969723.6161533 1.0062826.6161533h2.13856484l.01322959 5.1894022c0 .7388889.30917359 2.2504578 2.0019633 2.2504578h2.62044747c.10731707 0 .76074665-.023093 1.08269787-.3925374.16097561-.1583334.31242408-.5384759.31242408-1.0134759l.01201209-2.5640083h1.01951221c.3219512 0 .5245733-.2859917.5245733-.6026584s-.2606411-.5254111-.5825923-.5254111z"/><path d="m16.5268293 7.83055556c-2.897561 0-5.2585366 2.32222224-5.2585366 5.17222224s2.3609756 5.1722222 5.2585366 5.1722222c2.8975609 0 5.2585366-2.3222222 5.2585366-5.1722222s-2.3609757-5.17222224-5.2585366-5.17222224zm0 9.28888884c-2.3073171 0-4.1853659-1.8472222-4.1853659-4.1166666 0-2.2694445 1.8780488-4.11666669 4.1853659-4.11666669 2.307317 0 4.1853658 1.84722219 4.1853658 4.11666669 0 2.2694444-1.8780488 4.1166666-4.1853658 4.1166666z"/><path d="m16.8487805 10.4166667c-.2146342-.2111111-.5365854-.2111111-.7512195 0l-1.6634147 1.5833333c-.2146341.2111111-.2146341.5277778 0 .7388889.2146342.2111111.5365854.2111111.7512196 0l.804878-.7388889v2.9027778c0 .3166666.2146341.5277778.5365854.5277778.3219512 0 .5365853-.2111112.5365853-.5277778v-2.9027778l.8048781.7388889c.1073171.1055555.2146341.1583333.3756097.1583333s.2682927-.0527778.3756098-.1583333c.2146341-.2111111.2146341-.5277778 0-.7388889z"/></g></svg>