<svg height="20" viewBox="0 0 22 20" width="22" xmlns="http://www.w3.org/2000/svg"><g fill="#c7a27b"><path d="m21.6312954 9.64470433-10.285489-9.47450366c-.2350969-.22693422-.5877422-.22693422-.8228391 0l-10.3442632 9.47450366c-.17632267.17020067-.23509689.39713487-.11754844.62406907.11754844.2269343.29387111.3404014.528968.3404014h2.82116269v8.7369674c0 .3404014.23509689.5673356.58774222.5673356h13.69439383c.3526454 0 .5877423-.2269342.5877423-.5673356v-8.7369674h2.9387111c.2350969 0 .4701938-.1134671.528968-.3404014.1175485-.2269342.0587742-.4538684-.1175484-.62406907zm-3.937873-.17020066c-.3526453 0-.5877422.22693422-.5877422.56733553v8.7369675h-12.57768362v-8.7369675c0-.34040131-.23509689-.56733553-.58774223-.56733553h-1.72448175l8.7379867-8.03035055 8.6010658 8.11289835z"/><path d="m10.8422472 10.3870077-2.82386504-3.49330149c-.25101023-.28633619-.69027812-.34360343-1.0040409-.11453448s-.37651534.62993962-.12550511.91627581l2.19633946 2.74882746h-1.69431901c-.37651534 0-.75303068.2863362-.75303068.6872068 0 .3436035.31376278.6872069.75303068.6872069h2.7611125v1.0308103h-2.7611125c-.37651534 0-.75303068.2863362-.75303068.6872068 0 .4008707.31376278.6872069.75303068.6872069h.37651533l2.88661757-1.0308103 1.0040409-.3436034v-1.0308103h2.7611125c.3765153 0 .7530306-.2863362.7530306-.6872069 0-.3436034-.3137627-.6872068-.7530306-.6872068h-1.694319l2.1963394-2.74882746c.2510102-.28633619.1882577-.7444741-.1255051-.91627581s-.8157832-.17180171-1.0040409.11453448l-2.823865 3.49330149v.0572673h-.0627526c-.0627525 0-.0627525 0-.0627525-.0572673z"/><path d="m14.4007071 14.2239127h-2.8287103l-1.028622.311757-.5143109.1558785-2.44297713.7793925h2.44297713v1.9744609c0 .311757.3214443.5715545.7714664.5715545.3857332 0 .7714665-.2597975.7714665-.5715545v-1.9744609h2.8287103c.3857332 0 .7714664-.2597975.7714664-.623514s-.3214443-.623514-.7714664-.623514z"/></g></svg>