<svg height="20" viewBox="0 0 19 20" width="19" xmlns="http://www.w3.org/2000/svg"><g fill="#c7a27b" transform="translate(0 .96)"><path d="m16.4299237 7.71692308-.8354199-3.99876923c-.2088549-1.0523077-1.2531298-1.89415385-2.3670229-1.89415385h-8.21496182c-1.11389313 0-2.15816793.84184615-2.3670229 1.89415385l-.83541984 3.99876923c-1.04427481.21046154-1.81007634 1.05230769-1.81007634 2.10461538v3.99876924c0 1.0523077.76580153 1.8941538 1.81007634 2.1046154v1.6135384c0 .3507693.27847328.7015385.6961832.7015385.34809161 0 .69618321-.2806154.69618321-.7015385v-1.6135384h11.83511455v1.6135384c0 .3507693.2784732.7015385.6961832.7015385.3480916 0 .6961832-.2806154.6961832-.7015385v-1.6135384c1.0442748-.2104616 1.8100763-1.0523077 1.8100763-2.1046154v-3.99876924c-.1392366-1.05230769-.8354198-1.824-1.8100763-2.10461538zm-12.60091607-3.50769231s.06961832-.98215385 1.11389313-1.05230769h8.14534354s.9746565-.07015385 1.2531297.98215384l.6961833 3.50769231h-11.90473287zm12.94900767 9.61107693c0 .4209231-.41771.7716923-.9746565.7716923h-13.57557254c-.48732824 0-.97465649-.3507692-.97465649-.7716923v-3.99876924c0-.42092308.41770992-.77169231.97465649-.77169231h13.57557254c.4873282 0 .9746565.35076923.9746565.77169231z"/><path d="m3.744 9.6c-1.03095652 0-1.824.7930435-1.824 1.824s.79304348 1.824 1.824 1.824 1.824-.7930435 1.824-1.824-.79304348-1.824-1.824-1.824zm0 2.5377391c-.39652174 0-.71373913-.3172174-.71373913-.7137391s.31721739-.7137391.71373913-.7137391.71373913.3172174.71373913.7137391-.31721739.7137391-.71373913.7137391z"/><path d="m14.304 9.6c-1.0309565 0-1.824.7930435-1.824 1.824s.7930435 1.824 1.824 1.824 1.824-.7930435 1.824-1.824-.7930435-1.824-1.824-1.824zm0 2.5377391c-.3965217 0-.7137391-.3172174-.7137391-.7137391s.3172174-.7137391.7137391-.7137391.7137391.3172174.7137391.7137391-.3172174.7137391-.7137391.7137391z"/><path d="m10.6191304 10.56h-3.23826083c-.33043479 0-.66086957.3648-.66086957.912 0 .456.26434783.912.66086957.912h3.23826083c.3304348 0 .6608696-.3648.6608696-.912s-.2643478-.912-.6608696-.912z"/><path d="m7.296 0h3.648v1h-3.648z"/></g></svg>