<svg height="19" viewBox="0 0 22 19" width="22" xmlns="http://www.w3.org/2000/svg"><g fill="#c6a27d"><path d="m14.3333203 18h-7.66664057c-.36821594 0-.66667973.2238788-.66667973.5s.29846381.5.66667973.5h7.66664057c.3681689 0 .6666797-.2238788.6666797-.5 0-.2761389-.2985108-.5-.6666797-.5z"/><path d="m21.8885907 7.06446481-.0886689-.57610973h-1.7924625c-.609025-1.84005256-1.798506-3.48535705-3.3593355-4.64211166-.3006906-.22296687-.7246862-.15858676-.9465494.14346954-.2219588.30220024-.1579892.72792972.1428686.95089658 1.215064.90055388 2.1672269 2.14604412 2.7225298 3.54774554h-15.03013242c1.2126037-3.08914214 4.16707709-5.12833398 7.51556782-5.12833398.3738806 0 .6768882-.30443185.6768882-.68001055s-.3030076-.68001055-.6768882-.68001055c-2.0411031 0-3.98386314.64423316-5.61826488 1.86299233-1.57229534 1.17244772-2.72403474 2.770097-3.33683386 4.62536275h-1.89725518l-.08866885.57610973c-.07390661.48031939-.11138543.96807741-.11138543 1.44974057 0 3.34181552 1.77349621 6.47417372 4.74411727 8.37896632l.16658848.1068283h.1976178 11.78332895.1976656l.1665885-.1068283c2.9705494-1.9047926 4.7440934-5.0370788 4.7440934-8.37896632 0-.48166316-.0375266-.96942118-.1114093-1.44974057zm-5.198139 8.57551409h-11.38085562c-2.48079261-1.6618855-3.9557481-4.3117406-3.9557481-7.12577352 0-.22097524.00922041-.44351017.02756568-.66585317h19.23722044c.0182497.22234298.0275179.44487793.0275179.66585317 0 2.81403292-1.4750033 5.46396002-3.9557003 7.12577352z"/><path d="m14 3c.5514256 0 1-.44859791 1-1s-.4485744-1-1-1-1 .44859791-1 1 .4485509 1 1 1z"/></g></svg>