<svg height="22" viewBox="0 0 14 22" width="14" xmlns="http://www.w3.org/2000/svg"><path d="m1.86666667 1.19166667c-.36082604 0-.65333334.28728395-.65333334.64166666v18.33333337c0 .3543827.2925073.6416666.65333334.6416666h10.26666663c.3608261 0 .6533334-.2872839.6533334-.6416666v-18.33333337c0-.35438271-.2925073-.64166666-.6533334-.64166666zm0-1.19166667h10.26666663c1.0309316 0 1.8666667.82081129 1.8666667 1.83333333v18.33333337c0 1.012522-.8357351 1.8333333-1.8666667 1.8333333h-10.26666663c-1.03093154 0-1.86666667-.8208113-1.86666667-1.8333333v-18.33333337c0-1.01252204.83573513-1.83333333 1.86666667-1.83333333zm11.52666663 8h-.6066666v1h1.2133333v-.5.5h-13.39333333.60666666v-1h-1.21333333v.5-.5zm-13.3933333 0h14v1h-14zm3.5-5c.27614237 0 .5.22385763.5.5v2c0 .27614237-.22385763.5-.5.5s-.5-.22385763-.5-.5v-2c0-.27614237.22385763-.5.5-.5zm0 10c.27614237 0 .5.2238576.5.5v2c0 .2761424-.22385763.5-.5.5s-.5-.2238576-.5-.5v-2c0-.2761424.22385763-.5.5-.5z" fill="#c5a27f"/></svg>