<svg height="21" viewBox="0 0 21 21" width="21" xmlns="http://www.w3.org/2000/svg"><g fill="#c7a27b"><path d="m10.5 0c-5.78943749 0-10.5 4.11854719-10.5 9.18147466 0 2.81281034 1.42209375 5.40198614 3.94406251 7.17269914v3.9900066c0 .2511789.14371875.48006.370125.5902376.09121875.0432841.189.065582.286125.065582.14503125 0 .28875-.0478748.40687501-.1410012l3.394125-2.6790232c.68709372.1213267 1.39124998.1829737 2.09868748.1829737 5.7894375 0 10.5-4.1185472 10.5-9.18147464 0-5.06292747-4.7105625-9.18147466-10.5-9.18147466zm-5.2434375 18.9899129v-2.9833235c0-.2210112-.1430625-.4479248-.32812501-.5692514-2.29818749-1.5044502-3.6159375-3.7840792-3.6159375-6.25586334 0-4.33955841 4.12125001-7.86983541 9.18750001-7.86983541s9.1875 3.530277 9.1875 7.86983541c0 4.33955844-4.12125 7.86983544-9.1875 7.86983544-.7231875 0-1.4424375-.0721402-2.1380625-.214453-.04396876-.0091815-.08793751-.0131164-.13190626-.0131164-.1456875 0-.2900625.0485306-.40621876.1410012z"/><path d="m15.75 7.30434783h-9.58695652c-.37800001 0-.68478261.20452173-.68478261.45652174 0 .252.3067826.45652173.68478261.45652173h9.58695652c.378 0 .6847826-.20452173.6847826-.45652173 0-.25199999-.3067826-.45652174-.6847826-.45652174z"/><path d="m13.0869565 10.9565217h-6.0869565c-.336 0-.60869565.2045218-.60869565.4565218s.27269565.4565217.60869565.4565217h6.0869565c.336 0 .6086957-.2045217.6086957-.4565217s-.2726957-.4565218-.6086957-.4565218z"/></g></svg>