<svg height="22" viewBox="0 0 22 22" width="22" xmlns="http://www.w3.org/2000/svg"><g fill="none" fill-rule="evenodd" transform="translate(1 1)"><path d="m10-.65v1.3c-5.16386241 0-9.35 4.18613759-9.35 9.35 0 5.1638624 4.18613759 9.35 9.35 9.35 5.1638624 0 9.35-4.1861376 9.35-9.35h1.3c0 5.8818326-4.7681674 10.65-10.65 10.65-5.88183259 0-10.65-4.7681674-10.65-10.65 0-5.88183259 4.76816741-10.65 10.65-10.65z" fill="#c6a27d" fill-rule="nonzero"/><path d="m13.8528271 12.1876572c.3405324.1136133.5244868.481771.4108736.8223035-.1136133.3405324-.4817711.5244867-.8223035.4108735l-4.12330261-1.3756743c-.26533701-.0885255-.44428507-.3368735-.44428507-.6165885v-6.66666664c0-.35898509.29101492-.65.65-.65.35898509 0 .64999998.29101491.64999998.65v6.19830684z" fill="#c5a27f" fill-rule="nonzero"/><g fill="#c7a27b"><circle cx="13.095238" cy=".714286" r="1"/><circle cx="16.904762" cy="2.619048" r="1"/><circle cx="18.809524" cy="6.428571" r="1"/></g></g></svg>