<svg height="16" viewBox="0 0 24 16" width="24" xmlns="http://www.w3.org/2000/svg"><g fill="#c7a27b" fill-rule="evenodd" transform="translate(0 .666667)"><path d="m22.08075 6.24238618v-4.15429018c0-1.15137614-.9462656-2.088096-2.109375-2.088096h-15.94275c-1.16310938 0-2.109375.93671986-2.109375 2.088096v4.15429018c-1.14576562.65399167-1.91925 1.87835836-1.91925 3.27900675v2.89766167c0 .3843952.3148125.696032.703125.696032h.6939375 3.73453125 13.73681245 3.7345313.6939375c.3883125 0 .703125-.3116368.703125-.696032v-2.89766167c0-1.40064839-.7734844-2.62501508-1.91925-3.27900675zm-18.91797656-4.18231567c-.00004776-.39099378.32129291-.70909282.71627117-.70909282h16.24186299c.3949783 0 .716319.31809904.716319.70909282v3.75218832c-.165613-.02136733-.3340912-.03356373-.5054347-.03356373h-.291685c.0407824-.16280771.062845-.33289544.062845-.50804137v-.40616837c0-1.1641886-.9568111-2.11139479-2.1329112-2.11139479h-3.6046123c-1.1760525 0-2.1329113.94715892-2.1329113 2.11139479v.40616837c0 .17514593.0220149.34523366.0628451.50804137h-.5907244c.0407825-.16280771.0628451-.33289544.0628451-.50804137v-.40616837c0-1.1641886-.9568111-2.11139479-2.13291125-2.11139479h-3.60461233c-1.17605241 0-2.13291123.94715892-2.13291123 2.11139479v.40616837c0 .17514593.02201487.34523366.06284505.50804137h-.29168507c-.17139124 0-.33986945.0121964-.50543463.03356373zm15.61095316 2.77084104v.43541128c0 .2152225-.0934781.40880619-.2416812.54461884h-4.8821533c-.1482031-.13586332-.2416812-.32939634-.2416812-.54461884v-.43541128c0-.40971837.3367462-.74311814.750691-.74311814h3.8641337c.4138936 0 .750691.33334909.750691.74311814zm-8.1583893-.00103976v.43923316c0 .21711164-.0942985.41239454-.2438025.54939929h-4.92495545c-.14955562-.13705587-.24385416-.33228765-.24385416-.54939929v-.43923316c0-.41331473.33970196-.74964095.75728026-.74964095h3.8980516c.41752665 0 .75728025.3362751.75728025.74964095zm12.1815377 6.92754751h-21.59375v-2.22466972c0-1.34370333 1.10433877-2.43690172 2.46173527-2.43690172h16.67027943c1.3573965 0 2.4617353 1.0931511 2.4617353 2.43690172z" fill-rule="nonzero"/><rect height="3.297729" rx=".65" width="1.3" x="19" y="11.989136"/><rect height="3.297729" rx=".65" width="1.3" x="4" y="11.989136"/></g></svg>