<svg height="21" viewBox="0 0 20 21" width="20" xmlns="http://www.w3.org/2000/svg"><g fill="none" fill-rule="evenodd"><path d="m4.90361904 8.83889798c-.59732541 0-1.1808539-.21206649-1.60125412-.5825542l-2.83242619-2.49366728c-.33274921-.29337263-.50155857-.68733015-.46503731-1.0846405.03489809-.3805462.25646036-.71834382.60706441-.92538107l.08602784-.05113065c.24888652-.14210243.52969065-.21381125.81401819-.20787546.62086133 0 1.24983849.28079951 1.62560162.44844101l.05112976.0226316c.34329979.15255376 1.1808539.69487401 1.67186188 1.01926031.27593837-.16596509.73042509-.4358679 1.49980619-.89101457l-1.5485012-1.58672677c-.22453788-.22608909-.3739801-.51981348-.42689289-.8390457-.05681084-.37719337.04869501-.73510797.29217004-.98405559.02745493-.02792079.05733895-.05317345.08927418-.07543868l.46584889-.32857734c.26214145-.22883064.60868758-.27912309.86271319-.27912309.40254539 0 .80346761.12573112 1.07940597.33695941l2.56622683 1.76275035 2.16286988-1.27323717c.8245687-.48867497 1.8179469-.78120939 2.6563126-.78120939.8067139 0 1.4048509.27409385 1.6856588.7711509.1282301.22799243.3660241.65128722.136346 1.17935793-.1704325.3914429-.5697316.75187212-1.3334316 1.20366596l-9.05402482 5.35782228c-.31164804.18440565-.68903434.28163771-1.09076814.28163771zm-.85804737-1.5084594c.19278296.16919841.49643681.27516105.79264411.27516105.18202684 0 .34750577-.03930872.4683054-.11108986l9.23041522-5.46220329c.5047107-.29823356.7049402-.47854096.7827153-.56484924-.010355-.01915777-.0208356-.03824287-.031441-.05725401-.027304-.02990881-.1994021-.12988969-.6056529-.12988969-.6288199 0-1.4198093.23756141-2.0651771.61953964-.0024822.00170908-1.1525608.67764819-2.5525127 1.50313135-.2124199.12483622-.47478342.11558357-.6784636-.02392705l-2.96703736-2.03636271c-.01360308-.00944241-.0268511-.01941932-.03971495-.02990881-.12689541-.06998362-.2724678-.09519165-.41452474-.07178114-.00892863.00707826-.01803301.01391685-.02730402.0205089l-.32268393.22645242c.0117604.01719884.02505696.03322038.03971494.04785409l2.17273846 2.22607002c.14142529.14480646.20904709.34964868.18272723.55352338-.02631987.20387469-.14354505.38326213-.31676517.4847396-1.98988423 1.17498898-2.44908828 1.45442272-2.53679212 1.51082219-.21666882.15821515-.50484993.16397145-.72727993.01452714-.61061729-.41017797-1.58859781-1.04253567-1.85088193-1.15875277l-.05378065-.02392704c-.27221286-.12134432-.77775101-.3469422-1.14345947-.3469422-.06105057-.00368312-.12212329.00682958-.17871725.03076335zm13.30692573 13.57864722c-.9559643.0023232-1.7334937-.7947147-1.7384118-1.7820291v-.0335283h-6.95445842v.0335283c-.0049181.9873144-.78244749 1.7843523-1.73841172 1.7820291-.95596422.0023232-1.73349362-.7947147-1.73841172-1.7820291v-4.6646247c0-1.3277206 1.25389641-3.672187 2.30570854-5.40643828.55349991-.91113154 1.2400995-1.37633669 2.09875477-1.4215999.01081938-.00028263.02164396-.00028263.03246334 0h5.06752701c.8578437.04526321 1.5444432.51046836 2.0979431 1.42243811 1.0518122 1.73341307 2.3057086 4.07787947 2.3057086 5.40643827v4.6637865c-.0049181.9873144-.7824475 1.7843523-1.7384117 1.7820291zm-9.45280328-3.0001095h8.47348778c.3598262 0 .6510343.2990327.6510343.667206v.7017762c0 .2774264.2200797.5029973.4903678.5029973.270288 0 .4903677-.2255709.4903677-.5029973v-4.8095873c0-.7864734-.8359682-2.6515389-2.1815507-4.86835677-.4225865-.69745499-.7824127-.81758664-1.1079299-.83832879h-5.1572294c-.32551716.02074215-.68618013.1408738-1.10792986.83832879-1.3455825 2.21681787-2.18155073 4.08188337-2.18155073 4.86835677v4.8095873c0 .2774264.22007972.5029973.49036775.5029973s.49036775-.2255709.49036775-.5029973v-.7017762c0-.3681733.29120815-.667206.65103432-.667206z" fill="#c6a27d" fill-rule="nonzero"/><path d="m17.8859737 13.625782c-.0345629-.265864.1594784-.5125537.4507705-.5730762.2802603-.0576693.4786485-.2812346.4779704-.5386287-.0016771-.3062977-.2798611-.5536658-.6220719-.5531616h-.8727273c-.1565469.0007243.6021021-.0543063.4909303-.1529603-.1111717-.0986541-.1739453-.2328313-.1744821-.372952 0-.2906596-.6452431-.5259123-.317463-.5259123h.8727273c.9975476 0 1.8083721.7202909 1.8083721 1.6049862 0 .7484486-.5723467 1.391533-1.3923044 1.5622956-.0445512.0095154-.0901814.014392-.1359831.014533-.2990354.0009602-.5511759-.1992597-.5857388-.4651237zm-12.72186333.4651237c-.04615498-.000079-.09214343-.004956-.13704036-.014533-.81419577-.1665928-1.39135055-.8149588-1.39070583-1.5622956 0-.8846953.81006077-1.6049862 1.80690247-1.6049862h.87299783c.32788174 0 .59282643.236161.59282643.5268206s-.26494469.525004-.59181132.525004h-.87299782c-.16494141-.0007243-.32343412.057273-.44054179.1612076s-.18321613.2452738-.18375317.3928623c0 .2570521.19693207.4786801.47913369.5377204.2913824.0605225.48548384.3072122.45091021.5730762-.03457362.265864-.28679231.4660839-.58592034.4651237z" fill="#c6a27d" fill-rule="nonzero"/><g stroke="#c7a27b"><circle cx="8.15" cy="16.15" r="1.15"/><circle cx="16.15" cy="16.15" r="1.15"/></g></g></svg>