<svg height="20" viewBox="0 0 24 20" width="24" xmlns="http://www.w3.org/2000/svg"><g fill="#c7a27b" fill-rule="evenodd"><path d="m7.6385 6.904c.588 0 1.078.154 1.456.462.364.294.581.7.658 1.204h-.798c-.084-.329-.238-.567-.469-.721-.224-.154-.511-.224-.861-.224-.525 0-.917.175-1.183.539-.245.322-.364.77-.364 1.344 0 .588.119 1.043.357 1.358.259.336.665.511 1.211.511.357 0 .651-.091.875-.259.238-.189.406-.476.504-.854h.798c-.112.588-.371 1.043-.784 1.372-.385.308-.847.462-1.386.462-.833 0-1.456-.266-1.862-.784-.357-.448-.532-1.05-.532-1.806 0-.742.182-1.351.553-1.813.42-.532 1.029-.791 1.827-.791zm2.954.098h3.605v.7h-2.786v1.386h2.618v.7h-2.618v1.512h2.905v.7h-3.724zm6.713-.098c.763 0 1.365.245 1.806.742.42.469.63 1.092.63 1.862s-.21 1.386-.63 1.855c-.441.49-1.043.735-1.806.735-.77 0-1.372-.252-1.806-.742-.42-.476-.623-1.092-.623-1.848 0-.763.203-1.379.623-1.855.434-.504 1.036-.749 1.806-.749zm0 .721c-.518 0-.917.175-1.204.525-.273.336-.406.784-.406 1.358 0 .567.133 1.015.406 1.351.28.343.686.518 1.204.518s.917-.168 1.197-.497c.273-.329.413-.784.413-1.372s-.14-1.05-.413-1.386c-.28-.336-.679-.497-1.197-.497z"/><path d="m3.93104061 2.27103868-2.18144928 11.11959842 10.25350717 5.1810575 10.2829952-5.3795498-2.1325891-10.92110612zm17.29316349-1.3 2.523612 12.92355602-11.7343973 6.1388509-11.72910039-5.926669 2.5769767-13.13573792z" fill-rule="nonzero"/></g></svg>