<svg height="22" viewBox="0 0 21 22" width="21" xmlns="http://www.w3.org/2000/svg"><path d="m20.6650356 2.29166667-3.3099841-1.925c-.268377-.275-.6262132-.275-.8945902 0l-3.2205251 3.3h-4.29403334c-.17891805-.73333333-.53675417-1.55833333-1.25242639-2.29166668-1.78918057-1.83333332-4.56241046-1.83333332-6.35159104 0-1.78918058 1.83333333-1.78918056 4.67500001 0 6.50833333 1.34188543 1.375 3.22052503 1.65 4.83078754 1.00833335l3.93619723 5.31666663v6.4166667h-2.23647568c-.35783612 0-.71567222.275-.71567222.7333333.08945903.3666667.35783612.6416667.71567222.6416667h5.81483688c.3578361 0 .7156722-.275.7156722-.7333333 0-.3666667-.2683771-.7333334-.7156722-.7333334h-2.2364757v-6.4166666l6.7988861-9.1666667.4472952-.64166668c.2683771-.275.178918-.64166667-.3578362-.64166665h-3.220525l1.8786396-1.925 2.952148 1.74166665c.268377.18333333.7156722.09166668.8945903-.275.268377-.36666667.178918-.73333332-.1789181-.91666665zm-18.33910084 4.58333333c-1.25242639-1.28333333-1.25242639-3.3 0-4.49166668 1.25242639-1.19166667 3.22052502-1.28333333 4.38349238 0 .44729513.36666667.71567222.825.80513126 1.28333335h-4.29403337c-.44729514 0-.62621321.36666667-.26837709.73333333l2.41539377 3.3c-1.07350834.275-2.23647572 0-3.04160695-.825zm8.49860774 5.9583333-5.81483689-7.79166663h11.54021469z" fill="#c9a475"/></svg>