<svg height="20" viewBox="0 0 19 20" width="19" xmlns="http://www.w3.org/2000/svg"><g fill="#c5a27f"><path d="m9.04761905 17.1428571c-4.9917898 0-9.04761905-4.3137255-9.04761905-9.55182068v-.30812324c0-.30812324.31198685-.61624651.62397374-.61624651h16.84729066c.3119868 0 .6239737.24649861.6239737.61624651v.30812324c0 5.23809518-4.0558293 9.55182068-9.04761905 9.55182068zm-7.79967157-9.24369745c.12479473 4.43697475 3.55665024 8.01120455 7.79967157 8.01120455 4.18062395 0 7.61247945-3.5742298 7.79967155-8.01120455z"/><path d="m11.6402116 20h-5.18518514c-.44444444 0-.74074075-.1904762-.74074075-.4761905s.29629631-.4761905.74074075-.4761905h5.18518514c.4444445 0 .7407408.1904762.7407408.4761905s-.2962963.4761905-.7407408.4761905z"/><path d="m9.04761905 20c-.28571428 0-.47619048-.2176871-.47619048-.5442177v-2.7210884c0-.3265306.1904762-.5442177.47619048-.5442177s.47619047.2176871.47619047.5442177v2.7210884c0 .2721089-.19047619.5442177-.47619047.5442177z"/><path d="m7.68253969 7.61904762c-.06349207 0-.19047619 0-.25396826-.06349208-.31746031-.12698411-.44444446-.50793649-.31746031-.82539683.12698412-.31746031.19047619-.63492065.19047619-1.01587303 0-1.39682541-1.14285714-2.53968255-2.53968255-2.53968255s-2.53968255 1.14285714-2.53968255 2.53968255c0 .38095238.06349208.69841268.19047619 1.01587303.12698411.3174603 0 .69841268-.3174603.82539683-.31746031.12698412-.69841269 0-.82539684-.3174603-.19047619-.5079365-.31746031-1.01587303-.31746031-1.52380953 0-2.09523809 1.71428572-3.80952381 3.80952381-3.80952381 2.0952381 0 3.80952381 1.71428572 3.80952381 3.80952381 0 .5079365-.12698411 1.01587303-.3174603 1.52380953-.06349204.25396823-.31746031.38095238-.57142858.38095238z"/><path d="m17.2063492 7.61904762c-.0634921 0-.1904762 0-.2539682-.06349208-.3174604-.12698411-.4444445-.50793649-.3174604-.82539683.1269842-.31746031.1904762-.63492065.1904762-1.01587303 0-1.39682541-1.1428571-2.53968255-2.5396825-2.53968255s-2.5396826 1.14285714-2.5396826 2.53968255c0 .38095238.0634921.69841268.1904762 1.01587303.1269841.3174603 0 .69841268-.3174603.82539683-.3174603.12698412-.6984127 0-.8253968-.3174603-.1904762-.5079365-.3174603-1.01587303-.3174603-1.52380953 0-2.09523809 1.7142857-3.80952381 3.8095238-3.80952381s3.8095238 1.71428572 3.8095238 3.80952381c0 .5079365-.1269841 1.01587303-.3174603 1.52380953-.0634921.25396823-.3174603.38095238-.5714286.38095238z"/><path d="m12.6565326 3.80952381c-.1899791 0-.4432846-.11873839-.506611-.296846-1.0765484-1.60296847-2.0897705-2.37476812-2.97633982-2.3153989-1.13987483.11873839-2.02644413 1.60296847-2.21642327 2.1966605-.12665274.29684601-.50661102.47495361-.82324294.35621522-.31663189-.11873839-.50661103-.47495361-.37995828-.77179965.06332639-.11873839 1.13987483-2.79035251 3.29297174-2.96846011 1.39318037-.1187384 2.78636067.83116882 4.17954107 2.84972172.1899791.296846.1266527.65306122-.1899792.83116883-.1266528.05936918-.2533055.11873839-.3799583.11873839z"/></g></svg>