<svg height="17" viewBox="0 0 21 17" width="21" xmlns="http://www.w3.org/2000/svg"><path d="m32.3595834 14.7611645c.0549776-.2199103 0-.3848431-.1099552-.5497758-.1649327-.1649328-.3298655-.2199104-.5497758-.1649328-9.5661001 2.5839466-18.4724692-.2748879-18.5824244-.2748879-.1649328-.0549776-.3848431 0-.5497759.1099551-.1649327.1099552-.2199103.3298656-.1649327.5497759 1.8692379 7.7518398 0 14.1292399 0 14.1842174-.0549776.1649328 0 .3848432.1099551.5497759.1099552.1099552.274888.1649328.3848431.1649328h.1099552c10.5556967-2.4739914 18.5274468-.3298655 18.637402-.3298655.2199103.0549775.4398207 0 .5497759-.1649328.1649327-.1649328.1649327-.3848431.1099551-.5497759-2.3640362-5.992557.0549776-13.4145312.0549776-13.5244864zm-1.7498828 12.6513874c-2.3131196-.4731381-8.5690567-1.3668434-16.5072626.3154254.4205672-1.8925524 1.2091307-6.6239334 0-12.3541615 2.3656905.6308508 9.1473366 2.0502651 16.6124044.2628545-.5782799 2.0502651-1.6296979 7.1496424-.1051418 11.7758816z" fill="#c5a27f" transform="translate(-12 -13)"/></svg>