<svg height="19" viewBox="0 0 18 19" width="18" xmlns="http://www.w3.org/2000/svg"><path d="m17.8 1.22142857c.1333333-.13571428.2-.27142857.2-.54285714s-.2-.54285714-.4-.61071429c-.1333333-.06785714-.2-.06785714-.3333333-.06785714h-16.53333337c-.2 0-.4.06785714-.53333333.20357143-.26666667.27142857-.26666667.67857143 0 .95l8.46666667 10.38214287v6.1071428h-2.66666667c-.4 0-.66666667.2714286-.66666667.6785715 0 .4071428.26666667.6785714.66666667.6785714h6.6666667c.4 0 .6666666-.2714286.6666666-.6785714 0-.4071429-.2666666-.6785715-.6666666-.6785715h-2.6666667v-6.1071428zm-8.46666667 8.95714283-7.26666666-8.82142854h13.93333333z" fill="#c7a27b"/></svg>