<svg height="18" viewBox="0 0 20 18" width="20" xmlns="http://www.w3.org/2000/svg"><path d="m10.5390836 25.0859708h18.3288409c.3234502 0 .5390836-.7636364.5390836-1.0909091v-9.2727273c-.0539084-.6-.5929919-.5454545-.5390836-.5454545l-13.8645398-2.2312012c-.4312669 0-.5685148.2232777-.6907162.5948375.0282073.4779941.1932049.6623735.516655.716919l13.3941531 2.1452304.0111092 8.5029252-16.6173351-.01962c.3385377-1.0869096 3.2867576-6.0527299 11.4824798-5.1818182.3234501.0545455.6469002-.2181818.7008086-.5454545.0539083-.3272728-.2156334-.6545455-.5390836-.6545455-10.5660377-1.1454545-12.884097 5.9454546-13.0997304 6.3818182-.1078167.2181818-.1617251.3818182-.1078167.6545454-.0539084.2181819.2695417.5454546.4851752.5454546zm18.8679245 2.1818182h-18.8679245c-.2695418.0590909-.5390836.2363636-.5390836.590909 0 .3545455.2695418.5909091.6469003.5909091h18.7061994c.3234502 0 .6469003-.2363636.6469003-.5909091-.0539084-.3545454-.2695418-.590909-.5929919-.590909z" fill="#c5a27f" transform="translate(-10 -11)"/></svg>