<svg height="24" viewBox="0 0 14 24" width="14" xmlns="http://www.w3.org/2000/svg"><path d="m16.0486486 1.39849624h-3.7837837v-1.03508772c0-.21804511-.1513514-.36340852-.3783784-.36340852s-.3783784.14536341-.3783784.36340852v1.03508772h-3.78378378c-1.51351351 0-2.72432432 1.16290727-2.72432432 2.61654135v11.41102761c0 1.453634 1.21081081 2.6165413 2.72432432 2.6165413h3.78378378v.1453634.2907268c-.6810811.1453635-1.2108108.7994988-1.2108108 1.5263158 0 .508772.227027.9448622.6810811 1.235589l-2.27027029 1.8145363c-.07567568.2180452 0 .3634086.22702703.4360903h.15135135c.15135135 0 .3027027-.0726817.37837837-.2180451l2.11891894-1.4511279.0756757 1.8145364c0 .2180451.1513513.3634085.3783783.3634085.2270271 0 .3783784-.1453634.3783784-.3634085v-1.5964912l2.1189189 1.3784461c.0756757.1453634.2270271.2180451.3783784.2180451h.1513514c.227027-.0726817.3027027-.2907268.227027-.4360902l-2.2702703-1.9598998c.4540541-.2907268.6810811-.726817.6810811-1.3082707 0-.726817-.5297297-1.3082706-1.2108108-1.5263158v-.2907268c0-.0726817 0-.0726817 0-.1453634h3.7837838c1.5135135 0 2.7243243-1.1629073 2.7243243-2.6165413v-11.41102761c-.227027-1.38095238-1.4378378-2.54385965-2.9513514-2.54385965zm-9.91351346 2.61654135c0-.79949874.68108108-1.52631579 1.58918918-1.52631579h3.25405408c-.1513514.21804512-.227027.50877193-.3027027.72681705-.0756757.50877193-.1513514.58145363-.4540541.58145363-.22702701 0-.37837836 0-.45405403-.0726817 0 0-.07567568-.07268171-.07567568-.07268171 0-.29072681-.15135135-.50877193-.45405405-.58145363-.3027027-.07268171-.52972973.0726817-.68108108.36340852v.0726817c-.15135135 0-.30270271 0-.45405406.07268171-.15135135.0726817-.22702702.29072682-.22702702.43609022-.15135136 0-.37837838.07268171-.45405406.21804512-.15135135.14536341-.15135135.36340852-.07567567.50877193.07567567.0726817 0 .14536341 0 .14536341-.15135136.0726817-.22702703.21804511-.22702703.36340852 0 .1453634 0 .29072681.15135135.43609022.22702703.29072682.45405405.65413534.37837838.94486216-.15135135.43609022-.90810811.72681704-1.13513514.79949874-.15135135.07268171-.3027027.14536341-.37837837.36340853zm1.58918918 12.86466161c-.83243243 0-1.58918918-.6541353-1.58918918-1.5263157v-3.8521304c.07567567.1453634.22702702.2907268.37837837.3634086.22702703.0726817.98378379.3634085 1.13513514.7994987.07567567.2907268-.15135135.726817-.37837838.9448622-.07567568.1453634-.15135135.2907268-.15135135.4360902s.15135135.2907268.22702703.3634085v.1453634c-.07567568.1453634-.07567568.3634085.07567567.5087719.15135135.1453635.3027027.2180452.45405406.2180452 0 .1453634.07567567.3634085.22702702.4360902s.30270271.1453634.45405406.0726817v.0726817c.07567567.2907268.37837838.4360902.68108108.3634085s.45405405-.2907268.45405405-.5814536c0 0 0-.0726817.07567568-.0726817.07567567-.0726817.22702702-.0726817.45405403-.0726817.3027027.0726817.3783784.1453634.5297298.5814536.0756756.2180451.1513513.5087719.3027027.7994987zm9.91351348-1.453634c0 .7994987-.681081 1.5263158-1.5891892 1.5263158h-3.1027027c.0756757-.1453635.0756757-.2907269.1513514-.508772.0756757-.5087719.1513513-.5814536.5297297-.5814536.2270271 0 .3783784 0 .4540541.0726817 0 0 0 .0726817.0756757.0726817 0 .2907268.1513513.5087719.454054.5814536s.5297297-.0726817.6810811-.3634085c0 0 0 0 0-.0726817.1513513 0 .3027027 0 .454054-.0726817.1513514-.0726817.2270271-.2907268.2270271-.4360902.227027 0 .3783784-.0726817.454054-.2180451.1513514-.1453634.1513514-.3634086.0756757-.508772-.0756757-.0726817 0-.1453634 0-.1453634.1513514-.0726817.227027-.2180451.227027-.3634085s0-.2180451-.0756756-.2907268c0-.1453634 0-.2907268-.1513514-.4360902-.1513513-.1453634-.227027-.2907269-.3027027-.508772 0-.0726817 0-.0726817 0-.1453634.1513514-.4360902.9081081-.726817 1.1351351-.7994987.1513514 0 .2270271-.1453634.3027027-.2180451zm0-4.2882206c-.0756756-.2180451-.3783783-.3634085-.681081-.2907268-.1513514.0726817-1.5891892.4360902-1.8918919 1.5263158-.0756757.2907268-.0756757.6541353 0 1.0175438 0 .2907269.1513513.508772.3027027.7994988 0 .0726817-.0756757.1453634-.0756757.2907268-.0756757.0726817-.1513514.0726817-.227027.1453634-.0756757.0726817-.1513514.1453634-.2270271.2907268h-.0756756c-.3027027-.2907268-.7567568-.4360902-1.3621622-.3634085-1.1351351.1453634-1.3621622 1.0175439-1.4378378 1.4536341v.0726817-.0726817c-.0756757-.4360902-.3027027-1.3082707-1.4378379-1.4536341-.60540538-.0726817-1.05945944.0726817-1.36216214.3634085h-.07567567c-.07567568-.1453634-.15135135-.2180451-.22702703-.2907268s-.15135135-.0726817-.22702703-.1453634c0-.1453634-.07567567-.2907268-.07567567-.3634085.37837838-.5814536.45405405-1.1629073.3027027-1.6716792-.37837838-1.0902256-1.74054054-1.4536341-1.89189189-1.5263158-.30270271-.0726817-.52972973.0726817-.68108108.3634085v-2.97994985c.07567567.21804511.3027027.36340852.52972973.36340852h.15135135c.15135135-.07268171 1.58918919-.43609023 1.89189189-1.52631579.15135135-.50877193.07567568-1.09022557-.3027027-1.6716792.07567567-.14536341.07567567-.21804511.07567567-.36340852.07567568-.07268171.15135135-.07268171.22702703-.14536341s.15135135-.14536341.22702703-.29072682h.07567567c.3027027.29072682.75675676.43609023 1.36216214.36340852 1.1351352-.1453634 1.3621622-1.01754386 1.4378379-1.45363408v-.07268171.07268171c.0756756.43609022.3027027 1.30827068 1.4378378 1.45363408.6054054.07268171 1.0594595-.0726817 1.3621622-.36340852h.0756756c.0756757.14536341.1513514.21804512.2270271.29072682.0756756.0726817.1513513.0726817.227027.14536341 0 .14536341.0756757.29072681.1513513.36340852-.3783783.58145363-.454054 1.16290727-.3027027 1.6716792.3783784 1.09022556 1.7405406 1.45363408 1.8918919 1.52631579h.1513514c.227027 0 .454054-.14536341.5297297-.36340852v2.83458645zm0-3.34335838c-.0756756-.14536341-.227027-.29072682-.3783783-.29072682-.2270271-.07268171-.9837838-.36340852-1.1351352-.79949875-.0756757-.29072682.1513514-.72681704.3783784-.94486215.0756757-.14536341.1513514-.29072682.1513514-.43609023s-.0756757-.29072682-.2270271-.36340852c0 0-.0756756-.0726817 0-.14536341.0756757-.14536341.0756757-.36340852-.0756756-.50877193-.1513514-.14536341-.3027028-.21804511-.4540541-.21804511 0-.14536341-.0756757-.36340852-.227027-.43609023-.1513514-.0726817-.3027027-.14536341-.4540541-.0726817 0 0 0 0 0-.07268171-.0756757-.29072681-.3783784-.43609022-.6810811-.36340852-.3027027.07268171-.454054.29072682-.454054.58145364 0 0 0 .0726817-.0756757.0726817-.0756757.07268171-.227027.07268171-.454054.07268171-.3027028-.07268171-.3783784-.14536341-.5297298-.58145364-.0756757-.21804511-.1513513-.50877193-.3027027-.72681704h3.2540541c.8324324 0 1.5891892.65413534 1.5891892 1.52631579v3.70676692z" fill="#c6a27d" transform="translate(-5)"/></svg>