<svg height="20" viewBox="0 0 18 20" width="18" xmlns="http://www.w3.org/2000/svg"><path d="m15.0754883 4.88554509h-3.1675813c.671684-.43860061 1.2701247-.91860811 1.5695012-1.21830029.5960981-.59625932.9516955-1.36252129.9516955-2.04971953 0-.46563227-.1580433-.86845107-.4536717-1.16361193-.2957846-.29703589-.6979205-.45391334-1.1637734-.45391334-.6858955 0-1.4520619.35594306-2.04816.95220238-.0251433.02546915-1.84014257 2.0639385-2.16825421 3.54474288-.01311822.00031251-.02451858.0062501-.03779297.00781263-.08917265-.38750606-.28844464-.85157581-.61499459-1.41783466-.45820064-.79438741-1.10099337-1.67236988-1.56372292-2.13472085-.59578577-.59625932-1.36132754-.95220238-2.04784766-.95220238-.46507209 0-.86736414.15687745-1.16299257.45297583-.39292189.39250613-.539721.98689042-.40322906 1.63096298.11853248.55813372.43852332 1.12017375.90094053 1.58314974.299845.29969218.89844182.77969968 1.56934501 1.21830028h-3.16758134c-1.13987951 0-2.06736882.92829576-2.06736882 2.06909483v10.97704654c0 1.1414241.92748931 2.0684698 2.06736882 2.0684698h13.00811948c1.1408166 0 2.0673688-.927202 2.0673688-2.0684698v-10.97689028c.0001562-1.14079908-.9265522-2.06909483-2.0673688-2.06909483zm-3.4452503-3.06582916c.438211-.43750683.8978172-.59313426 1.1814206-.59313426.092296 0 .2191054.01625025.2968777.09453272.0777723.07765747.0944825.20422194.0944825.29672339 0 .28469195-.1555446.74469913-.5925063 1.18189347-.6235839.62407225-2.0587795 1.56689948-2.79511759 1.8148721.24065689-.69860466 1.14690709-2.12628322 1.81484309-2.79488742zm-2.08366342 2.85691964v.20890952h-.0176l-.0128-.20953453c.0096 0 .0184.00031251.0304.00062501zm-5.58268612-2.84707573c-.04810014-.2267223-.0218637-.41688152.07074468-.50938296.07745996-.07765747.2038009-.09375147.29625311-.09375147.28469658 0 .74430275.15578369 1.18126437.59313427.66887299.6686042 1.57418626 2.09643901 1.81484311 2.79488742-.73586961-.24812888-2.17044054-1.19079986-2.79480529-1.81487211-.29234888-.29250457-.49942933-.64610384-.56829998-.97001515zm3.65639116 2.84707573c.0104-.0003125.02-.00062501.0288-.00062501l-.0104.20953453h-.0184zm-6.39450701 13.25520713v-10.97720278c.00034395-.4650069.37683721-.84198027.84159621-.84266942h5.93287064v12.6617603h-5.93287064c-.46459706-.0003445-.84116559-.3770437-.84159621-.8418881zm14.69131189 0c-.0002584.4649411-.3769025.8417858-.8415962.8420444h-5.84916389v-12.66176035h5.84916389c.4648304.0005172.8414242.37759125.8415962.84266942z" fill="#c5a27f"/></svg>