<svg height="19" viewBox="0 0 18 19" width="18" xmlns="http://www.w3.org/2000/svg"><path d="m9.8158273 19c-5.41320467 0-9.8158273-4.2614438-9.8158273-9.50106323 0-5.23961948 4.40262263-9.49893677 9.8158273-9.49893677.2614332 0 .531654.01063234.797481.03189703.2921901.02339116.5492294.19563515.6744537.45293789s.0966644.55926133-.0703014.79104645c-.9710375 1.33542249-1.48291925 2.90900951-1.48291925 4.54851706 0 2.00313375.77331495 3.91270286 2.17934215 5.37996647 1.3972395 1.4587577 3.2909824 2.3518746 5.3341156 2.5113598.2921901.0233911.5492294.1956351.6744537.4529379.1252243.2573027.0966644.5592613-.0703014.7910464-1.8410168 2.5304981-4.8463999 4.040291-8.0363241 4.040291zm-.32884385-17.82125549c-4.18293088.34661443-8.18909334 3.28667297-8.18944028 8.34584045-.00029918 4.36285244 3.98406821 8.21531984 8.4943398 8.21531984 2.19911443 0 5.23875453-1.4129799 6.76561213-2.9036347-1.8761675-.4316732-4.1976247-1.2298679-5.5311536-2.622705-1.68723264-1.7585899-2.64666428-3.91414946-2.64666428-6.31705936 0-1.47576945.44164023-3.41636224 1.10730623-4.71776123z" fill="#c8a378"/></svg>